HIERARCHY
ROOT Hips
{
	OFFSET 0.00000 0.00000 0.00000
	CHANNELS 6 Xposition Yposition Zposition Zrotation Yrotation Xrotation 
	JOINT LHipJoint
	{
		OFFSET 0 0 0
		CHANNELS 3 Zrotation Yrotation Xrotation
		JOINT LeftUpLeg
		{
			OFFSET 1.75344 -1.53157 0.77399
			CHANNELS 3 Zrotation Yrotation Xrotation
			JOINT LeftLeg
			{
				OFFSET 2.25415 -6.19323 0.00000
				CHANNELS 3 Zrotation Yrotation Xrotation
				JOINT LeftFoot
				{
					OFFSET 2.30342 -6.32861 0.00000
					CHANNELS 3 Zrotation Yrotation Xrotation
					JOINT LeftToeBase
					{
						OFFSET 0.10958 -0.30108 1.49206
						CHANNELS 3 Zrotation Yrotation Xrotation
						End Site
						{
							OFFSET 0.00000 -0.00000 0.77783
						}
					}
				}
			}
		}
	}
	JOINT RHipJoint
	{
		OFFSET 0 0 0
		CHANNELS 3 Zrotation Yrotation Xrotation
		JOINT RightUpLeg
		{
			OFFSET -1.81912 -1.53156 0.77399
			CHANNELS 3 Zrotation Yrotation Xrotation
			JOINT RightLeg
			{
				OFFSET -2.22882 -6.12365 0.00000
				CHANNELS 3 Zrotation Yrotation Xrotation
				JOINT RightFoot
				{
					OFFSET -2.21943 -6.09785 0.00000
					CHANNELS 3 Zrotation Yrotation Xrotation
					JOINT RightToeBase
					{
						OFFSET -0.18931 -0.52012 1.59379
						CHANNELS 3 Zrotation Yrotation Xrotation
						End Site
						{
							OFFSET -0.00000 -0.00000 0.84686
						}
					}
				}
			}
		}
	}
	JOINT LowerBack
	{
		OFFSET 0 0 0
		CHANNELS 3 Zrotation Yrotation Xrotation
		JOINT Spine
		{
			OFFSET -0.00200 1.66634 -0.14248
			CHANNELS 3 Zrotation Yrotation Xrotation
			JOINT Spine1
			{
				OFFSET -0.00875 1.64542 0.09514
				CHANNELS 3 Zrotation Yrotation Xrotation
				JOINT Neck
				{
					OFFSET 0 0 0
					CHANNELS 3 Zrotation Yrotation Xrotation
					JOINT Neck1
					{
						OFFSET 0.02257 1.59605 0.00839
						CHANNELS 3 Zrotation Yrotation Xrotation
						JOINT Head
						{
							OFFSET -0.10214 1.57530 -0.23335
							CHANNELS 3 Zrotation Yrotation Xrotation
							End Site
							{
								OFFSET -0.03588 1.60717 -0.08062
							}
						}
					}
				}
				JOINT LeftShoulder
				{
					OFFSET 0 0 0
					CHANNELS 3 Zrotation Yrotation Xrotation
					JOINT LeftArm
					{
						OFFSET 2.54983 1.10186 0.40078
						CHANNELS 3 Zrotation Yrotation Xrotation
						JOINT LeftForeArm
						{
							OFFSET 4.28840 -0.00000 0.00000
							CHANNELS 3 Zrotation Yrotation Xrotation
							JOINT LeftHand
							{
								OFFSET 3.06552 -0.00000 -0.00000
								CHANNELS 3 Zrotation Yrotation Xrotation
								JOINT LeftFingerBase
								{
									OFFSET 0 0 0
									CHANNELS 3 Zrotation Yrotation Xrotation
									JOINT LeftHandIndex1
									{
										OFFSET 0.75304 -0.00000 0.00000
										CHANNELS 3 Zrotation Yrotation Xrotation
										End Site
										{
											OFFSET 0.60712 -0.00000 0.00000
										}
									}
								}
								JOINT LThumb
								{
									OFFSET 0 0 0
									CHANNELS 3 Zrotation Yrotation Xrotation
									End Site
									{
										OFFSET 0.61639 -0.00000 0.61639
									}
								}
							}
						}
					}
				}
				JOINT RightShoulder
				{
					OFFSET 0 0 0
					CHANNELS 3 Zrotation Yrotation Xrotation
					JOINT RightArm
					{
						OFFSET -2.60909 1.35448 0.21802
						CHANNELS 3 Zrotation Yrotation Xrotation
						JOINT RightForeArm
						{
							OFFSET -4.52172 -0.00000 -0.00000
							CHANNELS 3 Zrotation Yrotation Xrotation
							JOINT RightHand
							{
								OFFSET -2.89140 -0.00000 0.00000
								CHANNELS 3 Zrotation Yrotation Xrotation
								JOINT RightFingerBase
								{
									OFFSET 0 0 0
									CHANNELS 3 Zrotation Yrotation Xrotation
									JOINT RightHandIndex1
									{
										OFFSET -0.68054 -0.00000 0.00000
										CHANNELS 3 Zrotation Yrotation Xrotation
										End Site
										{
											OFFSET -0.54867 -0.00000 0.00000
										}
									}
								}
								JOINT RThumb
								{
									OFFSET 0 0 0
									CHANNELS 3 Zrotation Yrotation Xrotation
									End Site
									{
										OFFSET -0.55705 -0.00000 0.55705
									}
								}
							}
						}
					}
				}
			}
		}
	}
}
MOTION
Frames: 10
Frame Time: .0083333
9.7745 19.2595 -5.3379 -0.9011 -2.7128 8.0487 0.0000 0.0000 0.0000 -21.8502 -14.9007 -5.9067 1.1963 6.9400 19.5378 -1.8157 29.9809 9.6017 1.2506 7.0901 19.9827 0.0000 0.0000 0.0000 23.9661 12.5815 -6.7123 -1.1430 -6.7890 19.0917 1.0463 -32.9299 17.8947 -1.0799 -6.6053 18.5513 1.4973 1.6647 8.2335 -0.6957 2.3564 -3.8694 -1.9442 1.0396 -8.6338 -3.6667 -1.7205 -8.0631 1.2451 -2.0462 23.3408 0.8421 -1.1531 8.6409 -0.0000 0.0000 0.0000 -53.3047 -17.2171 20.2235 19.1895 -29.6534 -5.1243 -0.0000 -0.0000 12.9405 13.4224 -51.6463 -10.6000 -7.1250 0.0000 -0.0000 -13.2934 -21.2854 17.5728 -0.0000 0.0000 0.0000 36.1760 24.5801 6.3095 -40.7011 48.4798 -18.9625 0.0000 -0.0000 -1.2426 -2.5310 -53.4443 2.0336 7.1250 -0.0000 -0.0000 72.6734 -72.3621 -54.2855
9.7769 19.3862 -5.2559 -0.8348 -2.6012 7.9920 0.0000 0.0000 0.0000 -21.6882 -15.7612 -6.3733 1.1606 6.8393 19.2401 -1.9404 29.9632 8.5772 1.4990 7.7336 21.9079 0.0000 0.0000 0.0000 23.8183 13.0845 -7.1046 -1.0269 -6.4461 18.0844 1.0454 -33.2570 18.2061 -1.3949 -7.4720 21.1214 1.3732 1.5852 8.7841 -0.7765 2.2333 -3.6252 -1.9559 0.9837 -8.6973 -3.5789 -1.7595 -8.0049 1.4313 -2.1596 23.0802 0.8791 -1.1796 8.5444 0.0000 0.0000 0.0000 -54.3471 -16.4134 20.3290 19.0246 -29.4492 -5.0429 -0.0000 -0.0000 14.1894 14.5468 -52.0279 -11.5608 -7.1250 0.0000 -0.0000 -12.9098 -21.8589 17.1151 0.0000 0.0000 0.0000 37.4030 23.2500 8.2320 -40.8887 48.5877 -19.1031 0.0000 -0.0000 -4.5284 -16.9775 -53.6293 13.8111 7.1250 -0.0000 -0.0000 67.7409 -77.8341 -55.8108
9.7809 19.4969 -5.1715 -0.7223 -2.4375 7.8589 0.0000 0.0000 0.0000 -21.5979 -16.7161 -6.7099 1.1248 6.7366 18.9374 -2.0373 30.1075 7.9865 1.4650 7.6492 21.6536 0.0000 0.0000 0.0000 23.6177 13.4726 -7.3628 -0.9119 -6.0850 17.0313 1.3969 -33.5349 16.4975 -1.3506 -7.3570 20.7775 1.2341 1.5217 9.4159 -0.9155 2.1241 -3.3465 -2.0240 0.9336 -8.7680 -3.3623 -1.6609 -8.5907 1.6142 -2.0817 23.2041 0.9077 -1.1036 8.6915 0.0000 -0.0000 0.0000 -55.1759 -15.4587 21.0953 19.2868 -29.7735 -5.1725 -0.0000 -0.0000 14.2225 14.0684 -52.0474 -11.1777 -7.1250 0.0000 -0.0000 -13.1132 -21.7855 17.3866 0.0000 -0.0000 0.0000 38.5567 22.0141 8.7686 -41.1643 48.7448 -19.3100 0.0000 -0.0000 -2.6872 -8.4614 -55.7270 7.0083 7.1250 -0.0000 -0.0000 78.2470 -74.9779 -62.6341
9.7835 19.5944 -5.0951 -0.7629 -2.2498 7.7496 0.0000 0.0000 0.0000 -21.2873 -17.6986 -7.1568 1.0913 6.6388 18.6497 -2.1690 30.7466 7.8573 1.1882 6.9174 19.4709 0.0000 0.0000 0.0000 23.5724 14.0581 -7.5813 -0.8008 -5.7114 15.9493 1.8380 -34.6471 15.1407 -1.6291 -8.0466 22.8558 1.2453 1.4617 10.1823 -1.0147 2.0428 -3.1559 -2.1454 0.8867 -9.0080 -3.1900 -1.6834 -9.0075 1.7646 -2.1663 23.2587 0.9179 -1.1112 8.7891 0.0000 -0.0000 0.0000 -56.0782 -14.7486 21.6832 19.2319 -29.7058 -5.1452 -0.0000 -0.0000 14.1067 12.5799 -52.4657 -10.0353 -7.1250 0.0000 -0.0000 -13.8226 -21.9041 18.3839 0.0000 -0.0000 0.0000 39.6559 20.6731 9.8397 -41.0987 48.7075 -19.2607 0.0000 -0.0000 -2.8817 -4.3384 -57.0658 3.6432 7.1250 -0.0000 -0.0000 83.8127 -73.6393 -66.5931
9.7840 19.6820 -5.0245 -0.8815 -2.0344 7.6773 0.0000 0.0000 0.0000 -20.8211 -18.6826 -7.7264 1.0671 6.5671 18.4391 -2.6188 31.9175 5.9726 1.4738 7.6713 21.7199 0.0000 0.0000 0.0000 23.5684 15.0535 -7.7271 -0.6949 -5.3288 14.8488 2.5664 -36.3856 12.9674 -1.9346 -8.7286 24.9499 1.1865 1.3819 10.9458 -0.9632 1.9379 -2.9999 -2.0617 0.8364 -9.2922 -3.2688 -1.7176 -9.2661 1.8943 -2.2213 23.2407 0.9676 -1.1290 8.8350 0.0000 0.0000 0.0000 -57.1919 -13.8348 22.3291 19.2958 -29.7846 -5.1770 -0.0000 -0.0000 13.9210 11.2932 -52.8418 -9.0429 -7.1250 0.0000 -0.0000 -14.4317 -22.0322 19.2502 0.0000 0.0000 0.0000 40.6710 19.3975 11.0739 -40.9505 48.6230 -19.1494 0.0000 -0.0000 -3.2521 -4.8267 -56.1928 4.0135 7.1250 -0.0000 -0.0000 80.7229 -73.7305 -63.6223
9.7843 19.7596 -4.9462 -0.9925 -1.8953 7.5722 0.0000 0.0000 0.0000 -20.3895 -19.6622 -8.1949 1.0517 6.5211 18.3041 -3.2694 33.1483 2.4095 2.3156 9.4947 27.3555 0.0000 0.0000 0.0000 23.5074 16.2799 -7.6610 -0.5923 -4.9270 13.7006 3.4900 -38.1823 9.9425 -2.3551 -9.5695 27.5935 1.0378 1.3311 11.4860 -0.8519 1.8609 -2.7397 -1.8564 0.8113 -9.3345 -3.4833 -1.7604 -9.5201 2.0561 -2.2692 23.1666 1.0518 -1.1516 8.8631 -0.0000 -0.0000 0.0000 -58.3896 -13.2391 22.9504 19.2440 -29.7207 -5.1513 -0.0000 -0.0000 13.6486 9.7491 -52.8575 -7.7987 -7.1250 0.0000 -0.0000 -15.0665 -21.7900 20.1083 -0.0000 -0.0000 0.0000 41.5828 18.2223 12.3372 -40.8389 48.5591 -19.0658 0.0000 -0.0000 -2.9778 -5.4038 -54.8006 4.4200 7.1250 -0.0000 -0.0000 75.8107 -73.7178 -58.8368
9.7837 19.8238 -4.8599 -1.0648 -1.8053 7.4756 0.0000 0.0000 0.0000 -20.0193 -20.4480 -8.6747 1.0401 6.4863 18.2022 -3.7474 33.7901 -1.1188 3.0522 10.7791 31.5384 0.0000 0.0000 0.0000 23.3745 17.3899 -7.5610 -0.4947 -4.5096 12.5149 4.2533 -39.6196 7.5610 -2.8077 -10.3770 30.2063 0.9076 1.2948 11.9371 -0.8136 1.7976 -2.4663 -1.7380 0.7904 -9.3056 -3.3190 -1.7957 -9.5690 1.8298 -2.2905 22.8489 0.9440 -1.1696 8.7592 0.0000 0.0000 0.0000 -59.3606 -12.5163 23.9503 19.2244 -29.6965 -5.1415 -0.0000 -0.0000 13.4850 9.0885 -52.7076 -7.2526 -7.1250 0.0000 -0.0000 -15.3077 -21.5432 20.4133 0.0000 0.0000 0.0000 42.5032 17.0202 13.7373 -40.8018 48.5378 -19.0380 0.0000 -0.0000 -2.9482 -6.2878 -54.4778 5.1245 7.1250 -0.0000 -0.0000 74.3963 -73.9719 -57.7840
9.7841 19.8741 -4.7750 -1.1076 -1.6532 7.3901 0.0000 0.0000 0.0000 -19.6618 -21.1988 -9.2307 1.0340 6.4677 18.1477 -4.0625 33.9791 -4.7928 3.7601 11.8341 35.1477 0.0000 0.0000 0.0000 23.1691 18.4799 -7.4475 -0.4015 -4.0679 11.2678 4.9894 -40.8443 5.1318 -3.1468 -10.9290 32.0406 0.8062 1.2285 12.5356 -0.8232 1.6945 -2.2815 -1.6850 0.7441 -9.4576 -3.3963 -1.7487 -9.7329 2.0968 -2.2661 22.7921 1.0487 -1.1363 8.7731 0.0000 -0.0000 0.0000 -60.2324 -11.3147 25.0382 19.2845 -29.7706 -5.1713 -0.0000 -0.0000 14.0871 10.7712 -52.7975 -8.6163 -7.1250 0.0000 -0.0000 -14.6362 -21.9019 19.5192 0.0000 -0.0000 0.0000 43.6755 15.8862 14.9232 -40.5541 48.3948 -18.8525 0.0000 -0.0000 -2.6560 -5.7916 -55.4794 4.7770 7.1250 -0.0000 -0.0000 78.0122 -73.9778 -61.2582
9.7876 19.9083 -4.6905 -1.1983 -1.5445 7.3099 0.0000 0.0000 0.0000 -19.2272 -22.1926 -9.7503 1.0332 6.4652 18.1403 -4.2981 34.1700 -8.3895 4.4795 12.7725 38.5229 0.0000 0.0000 0.0000 22.9446 19.6856 -7.2677 -0.3137 -3.6004 9.9551 5.7540 -41.8393 2.1069 -3.4215 -11.3480 33.4628 0.7397 1.1918 12.9953 -0.7810 1.6398 -2.0738 -1.6001 0.7225 -9.5017 -3.6755 -1.7396 -9.8050 2.4940 -2.2876 22.6735 1.2273 -1.1289 8.7542 0.0000 -0.0000 0.0000 -61.2590 -10.1811 25.8110 19.2559 -29.7355 -5.1572 -0.0000 -0.0000 14.7929 12.2042 -52.8570 -9.7820 -7.1250 0.0000 -0.0000 -14.0623 -22.2056 18.7563 0.0000 -0.0000 0.0000 44.7888 14.9910 15.9299 -39.7367 47.9131 -18.2436 0.0000 -0.0000 -1.9823 -5.2941 -55.7411 4.3795 7.1250 -0.0000 -0.0000 79.0535 -73.8384 -62.1097
9.7925 19.9267 -4.5997 -1.3833 -1.6804 7.2771 0.0000 0.0000 0.0000 -18.6376 -23.4032 -10.2200 1.0354 6.4720 18.1602 -4.3171 33.8593 -12.8980 5.4093 13.8304 42.5622 0.0000 0.0000 0.0000 22.9226 19.9364 -7.4266 -0.2371 -3.1338 8.6515 6.0506 -42.0153 0.3757 -3.7700 -11.8479 35.1961 0.6906 1.2520 13.7470 -0.6901 1.7238 -2.1846 -1.5176 0.7605 -10.0623 -3.8868 -1.8314 -9.6159 2.6299 -2.4142 22.6991 1.2972 -1.1938 8.7368 -0.0000 -0.0000 0.0000 -62.3239 -8.9423 26.7961 19.0609 -29.4943 -5.0608 -0.0000 -0.0000 15.1241 12.4402 -52.9176 -9.9811 -7.1250 0.0000 -0.0000 -13.9790 -22.3046 18.6527 -0.0000 -0.0000 0.0000 45.7603 13.5310 17.4769 -39.1142 47.5362 -17.7830 0.0000 -0.0000 -1.3392 -5.3374 -54.7543 4.3631 7.1250 -0.0000 -0.0000 75.6774 -73.6846 -58.6709
